HIERARCHY
ROOT Hips
{
	OFFSET 0.00 0.00 0.00
	CHANNELS 6 Xposition Yposition Zposition Xrotation Yrotation Zrotation
	JOINT RightUpLeg
	{
		OFFSET -4.47808 0.00000 0.00000
		CHANNELS 3 Xrotation Yrotation Zrotation
		JOINT RightLeg
		{
			OFFSET 0.00000 -16.40577 0.00000
			CHANNELS 3 Xrotation Yrotation Zrotation
			JOINT RightFoot
			{
				OFFSET 0.00000 -14.64414 0.00000
				CHANNELS 3 Xrotation Yrotation Zrotation
				JOINT RightToeBase
				{
					OFFSET 0.00000 -1.50274 5.60831
					CHANNELS 3 Xrotation Yrotation Zrotation
					End Site
					{
						OFFSET 0.00000 0.00000 2.95275
					}
				}
			}
		}
	}
	JOINT LeftUpLeg
	{
		OFFSET 4.47808 0.00000 0.00000
		CHANNELS 3 Xrotation Yrotation Zrotation
		JOINT LeftLeg
		{
			OFFSET 0.00000 -16.40577 0.00000
			CHANNELS 3 Xrotation Yrotation Zrotation
			JOINT LeftFoot
			{
				OFFSET 0.00000 -14.64414 0.00000
				CHANNELS 3 Xrotation Yrotation Zrotation
				JOINT LeftToeBase
				{
					OFFSET 0.00000 -1.50274 5.60831
					CHANNELS 3 Xrotation Yrotation Zrotation
					End Site
					{
						OFFSET 0.00000 0.00000 2.95275
					}
				}
			}
		}
	}
	JOINT Spine
	{
		OFFSET 0.00000 6.06821 0.00000
		CHANNELS 3 Xrotation Yrotation Zrotation
		JOINT RightShoulder
		{
			OFFSET 0.00000 10.01392 0.00000
			CHANNELS 3 Xrotation Yrotation Zrotation
			JOINT RightArm
			{
				OFFSET -7.19022 0.00000 0.00000
				CHANNELS 3 Xrotation Yrotation Zrotation
				JOINT RightForeArm
				{
					OFFSET -10.17747 0.00000 0.00000
					CHANNELS 3 Yrotation Zrotation Xrotation
					JOINT RightHand
					{
						OFFSET -8.39211 0.00000 0.00000
						CHANNELS 3 Xrotation Yrotation Zrotation
						End Site
						{
							OFFSET -3.93700 0.00000 0.00000
						}
						JOINT RightHandThumb1
						{
							OFFSET 0.00000 0.00000 0.00000
							CHANNELS 3 Xrotation Zrotation Yrotation
							End Site
							{
								OFFSET 0.00000 0.00000 3.93700
							}
						}
					}
				}
			}
		}
		JOINT LeftShoulder
		{
			OFFSET 0.00000 10.01392 0.00000
			CHANNELS 3 Xrotation Yrotation Zrotation
			JOINT LeftArm
			{
				OFFSET 7.19022 0.00000 0.00000
				CHANNELS 3 Xrotation Yrotation Zrotation
				JOINT LeftForeArm
				{
					OFFSET 10.17747 0.00000 0.00000
					CHANNELS 3 Yrotation Zrotation Xrotation
					JOINT LeftHand
					{
						OFFSET 8.39211 0.00000 0.00000
						CHANNELS 3 Xrotation Yrotation Zrotation
						End Site
						{
							OFFSET 3.93700 0.00000 0.00000
						}
						JOINT LeftHandThumb1
						{
							OFFSET 0.00000 0.00000 0.00000
							CHANNELS 3 Xrotation Zrotation Yrotation
							End Site
							{
								OFFSET 0.00000 0.00000 3.93700
							}
						}
					}
				}
			}
		}
		JOINT Head
		{
			OFFSET 0.00000 15.77748 0.00000
			CHANNELS 3 Xrotation Yrotation Zrotation
			End Site
			{
				OFFSET 0.00000 4.52755 0.00000
			}
		}
	}
}
MOTION
Frames: 11
Frame Time: 0.008333
 -3.8956 33.0746 -2.6886 8.8240 -2.1639 2.7715 -2.9555 -5.7225 -3.1217 2.1497 0.0000 -0.0000 -12.8260 -5.4731 -2.2217 4.1077 0.0000 0.0000 -3.5389 2.3633 2.7567 3.5800 0.0000 0.0000 -11.5867 6.8863 -12.4752 10.3759 0.0000 0.0000 -12.9202 1.7477 -4.2086 -6.8404 -5.3671 -27.3083 -64.2804 -18.2382 47.9678 102.6391 0.0000 -26.9113 4.3909 22.4425 -11.3728 32.8623 0.0000 -24.3270 -0.5875 12.7140 12.1507 -4.9527 -52.2409 -88.4799 -22.3668 -0.0000 13.5128 0.5837 1.6537 -19.4434 33.1476 -0.0000 26.2537 2.0108 -33.9284 -0.7870
 -3.8925 33.0743 -2.6841 8.8282 -2.2784 2.7803 -2.9684 -5.6541 -3.1291 2.1517 -0.0000 0.0000 -12.8143 -5.4519 -2.2007 4.1012 -0.0000 -0.0000 -3.5108 2.3944 2.7460 3.5945 -0.0000 -0.0000 -11.6465 6.9467 -12.3747 10.4610 0.0000 0.0000 -12.8975 1.6751 -4.2063 -6.7042 -5.5037 -27.3209 -64.5254 -18.4580 47.3686 102.6909 0.0000 -27.0949 4.4573 22.4371 -11.5434 32.8623 0.0000 -24.3270 -0.6057 12.7521 12.1426 -4.8970 -52.2214 -88.4340 -22.4310 -0.0000 13.7497 0.5794 1.6389 -19.4749 33.1476 -0.0000 26.2537 1.9299 -33.9533 -0.8325
 -3.8906 33.0748 -2.6790 8.8214 -2.3789 2.7767 -2.9676 -5.6230 -3.1271 2.1559 -0.0000 -0.0000 -12.8000 -5.3896 -2.1733 4.1136 -0.0000 0.0000 -3.4722 2.4258 2.7512 3.5848 0.0000 0.0000 -11.6374 7.0159 -12.4354 10.3658 -0.0000 -0.0000 -12.8674 1.5720 -4.1840 -6.6330 -5.6143 -27.3207 -64.7286 -18.6373 46.7792 102.7086 0.0000 -27.2476 4.4942 22.6615 -11.5304 32.8623 0.0000 -24.3270 -0.4738 12.8727 12.0581 -5.0101 -52.3064 -88.3618 -22.4350 -0.0000 13.7640 0.5745 1.6191 -19.5396 33.1476 -0.0000 26.2537 1.8116 -33.9461 -0.9394
 -3.8886 33.0743 -2.6743 8.8292 -2.4774 2.7860 -2.9819 -5.5818 -3.1337 2.1566 0.0000 -0.0000 -12.7949 -5.3580 -2.1483 4.1489 0.0000 0.0000 -3.4560 2.4465 2.7420 3.6088 -0.0000 0.0000 -11.6961 7.0661 -12.3334 10.4710 -0.0000 -0.0000 -12.8663 1.4965 -4.1832 -6.5753 -5.7228 -27.3331 -64.8827 -18.8678 46.1703 102.7415 0.0000 -27.3713 4.5231 22.7250 -11.5729 32.8623 0.0000 -24.3270 -0.5075 12.8565 12.0333 -4.9225 -52.2994 -88.3149 -22.4219 -0.0000 13.7152 0.5789 1.6347 -19.5028 33.1476 -0.0000 26.2537 1.7837 -33.9045 -0.9494
 -3.8875 33.0743 -2.6694 8.8320 -2.5688 2.7902 -2.9932 -5.5529 -3.1328 2.1642 0.0000 0.0000 -12.7841 -5.3302 -2.1145 4.1042 -0.0000 -0.0000 -3.4365 2.4815 2.7403 3.6222 0.0000 -0.0000 -11.7240 7.1067 -12.3297 10.4762 0.0000 -0.0000 -12.8452 1.4239 -4.1993 -6.4629 -5.8414 -27.3155 -65.1342 -19.1511 45.4579 102.8127 0.0000 -27.4155 4.4982 22.7415 -11.5029 32.8623 0.0000 -24.3270 -0.4211 12.9289 12.0059 -5.0256 -52.3534 -88.3032 -22.4374 -0.0000 13.6137 0.5910 1.6723 -19.4655 33.1476 -0.0000 26.2537 1.7545 -33.8360 -0.9128
 -3.8856 33.0747 -2.6639 8.8316 -2.6592 2.8001 -3.0005 -5.5508 -3.1385 2.1687 0.0000 -0.0000 -12.7805 -5.2738 -2.1179 4.1263 0.0000 0.0000 -3.4055 2.5288 2.7321 3.6194 -0.0000 0.0000 -11.7350 7.1381 -12.3290 10.4846 0.0000 0.0000 -12.8121 1.3480 -4.2045 -6.3995 -6.0054 -27.3169 -65.3600 -19.4187 44.8204 102.8618 0.0000 -27.5213 4.4598 22.8442 -11.3597 32.8623 0.0000 -24.3270 -0.4054 12.9691 11.9772 -5.0157 -52.3254 -88.2568 -22.4881 -0.0000 13.7361 0.5972 1.6842 -19.5275 33.1476 -0.0000 26.2537 1.6571 -33.8292 -0.9451
 -3.8823 33.0751 -2.6576 8.8260 -2.7450 2.8074 -2.9980 -5.5376 -3.1438 2.1650 -0.0000 0.0000 -12.7630 -5.2512 -2.0789 4.0766 -0.0000 -0.0000 -3.3739 2.5825 2.7242 3.6165 0.0000 0.0000 -11.7252 7.1601 -12.3795 10.3928 -0.0000 -0.0000 -12.7809 1.2677 -4.1956 -6.4736 -6.1122 -27.3366 -65.4139 -19.6576 44.1878 102.9179 0.0000 -27.5748 4.5075 22.9203 -11.4432 32.8623 0.0000 -24.3270 -0.4292 13.0243 11.9492 -4.9623 -52.3449 -88.1873 -22.5592 -0.0000 13.9747 0.5948 1.6679 -19.6309 33.1476 -0.0000 26.2537 1.5609 -33.8326 -1.0328
 -3.8799 33.0757 -2.6510 8.8285 -2.8111 2.8112 -2.9964 -5.5871 -3.1486 2.1511 -0.0000 -0.0000 -12.7428 -5.1629 -2.0418 4.0838 0.0000 -0.0000 -3.3492 2.6196 2.7180 3.6205 -0.0000 -0.0000 -11.7592 7.1731 -12.3049 10.4451 0.0000 -0.0000 -12.7736 1.1875 -4.1938 -6.3512 -6.2746 -27.3435 -65.6507 -19.9711 43.4660 103.0005 0.0000 -27.6165 4.5253 22.9965 -11.4524 32.8623 0.0000 -24.3270 -0.3957 13.0670 11.9001 -4.9822 -52.4206 -88.1383 -22.5423 -0.0000 13.9623 0.5828 1.6348 -19.6231 33.1476 -0.0000 26.2537 1.5366 -33.8200 -1.0732
 -3.8769 33.0765 -2.6453 8.8426 -2.8610 2.8138 -3.0153 -5.6510 -3.1514 2.1525 -0.0000 0.0000 -12.7252 -5.0830 -2.0126 4.0582 0.0000 0.0000 -3.3414 2.6483 2.7129 3.6171 -0.0000 -0.0000 -11.7641 7.1855 -12.2964 10.4429 -0.0000 0.0000 -12.7665 1.1252 -4.2040 -6.0678 -6.5121 -27.3489 -66.0590 -20.3902 42.6762 103.1237 0.0000 -27.7802 4.4751 23.1534 -11.2574 32.8623 0.0000 -24.3270 -0.4217 13.0966 11.8994 -4.9827 -52.4112 -88.1437 -22.6001 -0.0000 14.1996 0.6001 1.6870 -19.5855 33.1476 -0.0000 26.2537 1.4975 -33.8333 -1.0569
 -3.8727 33.0773 -2.6397 8.8498 -2.9069 2.8270 -3.0075 -5.6081 -3.1625 2.1280 -0.0000 -0.0000 -12.7137 -5.1206 -2.0194 4.0969 0.0000 0.0000 -3.3249 2.6810 2.6939 3.6057 -0.0000 -0.0000 -11.7593 7.1873 -12.2686 10.4314 -0.0000 0.0000 -12.7396 1.0715 -4.2136 -5.9324 -6.7181 -27.3563 -66.3236 -20.7463 41.8847 103.2551 0.0000 -27.8655 4.4882 23.2156 -11.2618 32.8623 0.0000 -24.3270 -0.4732 13.1164 11.8722 -4.9235 -52.4737 -88.1019 -22.6378 -0.0000 14.1520 0.6191 1.7485 -19.5021 33.1476 -0.0000 26.2537 1.3980 -33.8012 -1.1296
 -3.8695 33.0780 -2.6338 8.8607 -2.9261 2.8346 -3.0070 -5.6592 -3.1714 2.1071 0.0000 -0.0000 -12.6907 -5.0829 -1.9810 4.0652 0.0000 -0.0000 -3.3168 2.7001 2.6820 3.5973 -0.0000 0.0000 -11.7574 7.1816 -12.2740 10.4650 -0.0000 -0.0000 -12.7260 1.0068 -4.2318 -5.8038 -6.9182 -27.3357 -66.5393 -21.0618 41.0267 103.3729 0.0000 -28.0276 4.5611 23.3594 -11.3759 32.8623 0.0000 -24.3270 -0.4474 13.1586 11.8313 -4.9467 -52.4437 -88.0502 -22.6747 -0.0000 14.4115 0.5977 1.6741 -19.6502 33.1476 -0.0000 26.2537 1.3564 -33.8693 -1.1261
